<?xml version="1.0" encoding="utf-8"?>
<!-- Generator: Adobe Illustrator 27.0.1, SVG Export Plug-In . SVG Version: 6.00 Build 0)  -->
<svg version="1.1" id="Layer_1" xmlns="http://www.w3.org/2000/svg" xmlns:xlink="http://www.w3.org/1999/xlink" x="0px" y="0px"
	 viewBox="0 0 13 9" style="enable-background:new 0 0 13 9;" xml:space="preserve">
<style type="text/css">
	.st0{fill:#007142;}
</style>
<path class="st0" d="M0.2,8l3-7.6h1.1l3,7.6H6.1L5.4,6.2H2.2L1.5,8H0.2z M2.6,5.2H5L3.8,2L2.6,5.2z M11.7,8V7.2l0,0
	c-0.4,0.6-1.1,0.9-1.9,0.9c-0.6,0-1-0.1-1.3-0.4C8.2,7.4,8,7.1,8,6.6c0-0.2,0-0.3,0-0.4s0.1-0.3,0.1-0.3c0.1-0.1,0.1-0.2,0.2-0.3
	c0.1-0.1,0.2-0.2,0.3-0.2C8.7,5.3,8.8,5.3,9,5.2c0.1-0.1,0.2-0.1,0.3-0.1C9.4,5.1,9.5,5,9.7,5C9.8,5,9.9,4.9,10,4.9s0.2,0,0.4-0.1
	c0.2,0,0.3,0,0.4-0.1c0.4-0.1,0.7-0.1,0.8-0.2s0.2-0.2,0.2-0.4c0-0.3-0.1-0.5-0.3-0.7S11,3.1,10.7,3.1c-0.7,0-1.2,0.3-1.2,1H8.3
	C8.4,3.5,8.6,3,8.9,2.7c0.4-0.3,0.9-0.5,1.7-0.5s1.3,0.2,1.7,0.5c0.4,0.4,0.6,0.9,0.6,1.7V8H11.7z M11.7,5.8V5.3
	c-0.1,0-0.3,0.1-0.5,0.1s-0.4,0.1-0.5,0.1c-0.2,0-0.3,0.1-0.5,0.1S9.9,5.7,9.8,5.7c-0.1,0-0.2,0.1-0.3,0.2C9.3,5.9,9.2,6,9.2,6.1
	C9.1,6.2,9.1,6.3,9.1,6.5s0.1,0.4,0.3,0.6c0.2,0.1,0.4,0.2,0.7,0.2c0.5,0,0.9-0.1,1.2-0.4C11.6,6.6,11.7,6.2,11.7,5.8z"/>
</svg>
