<?xml version="1.0" encoding="utf-8"?>
<!-- Generator: Adobe Illustrator 27.0.1, SVG Export Plug-In . SVG Version: 6.00 Build 0)  -->
<svg version="1.1" id="Layer_1" xmlns="http://www.w3.org/2000/svg" xmlns:xlink="http://www.w3.org/1999/xlink" x="0px" y="0px"
	 viewBox="0 0 16 15" style="enable-background:new 0 0 16 15;" xml:space="preserve">
<style type="text/css">
	.st0{fill:#007142;}
	.st1{fill:none;stroke:#007142;stroke-width:0.9226;}
</style>
<path class="st0" d="M5.6,12v-0.8l0,0c-0.4,0.6-1.1,0.9-1.9,0.9c-0.6,0-1-0.1-1.3-0.4C2.1,11.4,2,11.1,2,10.6c0-0.2,0-0.3,0-0.4
	c0-0.1,0-0.2,0.1-0.3s0.1-0.2,0.2-0.3c0.1-0.1,0.2-0.2,0.3-0.2c0.1-0.1,0.2-0.1,0.3-0.2c0.1,0,0.2-0.1,0.3-0.1C3.3,9.1,3.4,9,3.5,9
	s0.3-0.1,0.4-0.1c0.1,0,0.2,0,0.4-0.1c0.2,0,0.3,0,0.4-0.1c0.4-0.1,0.7-0.1,0.8-0.2c0.1-0.1,0.2-0.2,0.2-0.4c0-0.3-0.1-0.5-0.3-0.7
	c-0.3-0.1-0.6-0.2-1-0.2c-0.7,0-1.2,0.3-1.2,1h-1c0.1-0.6,0.3-1.1,0.6-1.4c0.4-0.3,0.9-0.5,1.7-0.5s1.3,0.2,1.7,0.5
	c0.4,0.4,0.5,0.9,0.5,1.7V12H5.6z M5.6,9.8V9.3c-0.1,0-0.3,0.1-0.5,0.1S4.7,9.5,4.6,9.5c-0.2,0-0.3,0.1-0.5,0.1
	c-0.2,0-0.3,0.1-0.4,0.1c-0.1,0-0.2,0.1-0.3,0.2c-0.2,0-0.3,0.1-0.3,0.2C3,10.2,3,10.3,3,10.5s0.1,0.4,0.3,0.6
	c0.2,0.1,0.4,0.2,0.7,0.2c0.5,0,0.9-0.1,1.2-0.4C5.4,10.6,5.6,10.2,5.6,9.8z M8.4,12V4.4h1.1v3l0,0C9.7,7,9.9,6.8,10.2,6.6
	c0.3-0.2,0.6-0.2,1.1-0.2s0.9,0.1,1.3,0.4c0.4,0.2,0.6,0.6,0.8,1c0.2,0.4,0.3,0.9,0.3,1.5c0,0.9-0.2,1.6-0.6,2.1
	c-0.4,0.5-1,0.8-1.7,0.8c-0.8,0-1.4-0.3-1.8-1l0,0V12H8.4z M11,11.3c0.5,0,0.8-0.2,1.1-0.5c0.3-0.4,0.4-0.9,0.4-1.5
	s-0.1-1.1-0.4-1.5c-0.3-0.4-0.7-0.5-1.1-0.5c-0.5,0-0.9,0.2-1.1,0.5C9.6,8.1,9.5,8.6,9.5,9.3C9.5,10.6,10,11.3,11,11.3z"/>
<line class="st1" x1="0.5" y1="11.1" x2="0.5" y2="14.8"/>
<line class="st1" x1="15.2" y1="11.1" x2="15.2" y2="14.8"/>
<line class="st1" x1="0" y1="14.3" x2="15.5" y2="14.3"/>
</svg>
