<svg width="24" height="24" viewBox="0 0 24 24" fill="none" xmlns="http://www.w3.org/2000/svg">
<path d="M18.3638 15.5362L16.9498 14.1202L18.3638 12.7062C18.8314 12.2427 19.2029 11.6913 19.4568 11.0838C19.7108 10.4763 19.8423 9.82465 19.8437 9.1662C19.8452 8.50775 19.7166 7.8555 19.4652 7.24689C19.2139 6.63828 18.8449 6.08531 18.3793 5.61971C17.9137 5.15412 17.3607 4.78507 16.7521 4.53376C16.1435 4.28245 15.4913 4.15382 14.8328 4.15526C14.1744 4.1567 13.5227 4.28819 12.9152 4.54216C12.3077 4.79614 11.7563 5.1676 11.2928 5.63523L9.87877 7.05023L8.46377 5.63623L9.87977 4.22223C11.1926 2.90941 12.9732 2.17188 14.8298 2.17188C16.6864 2.17188 18.4669 2.90941 19.7798 4.22223C21.0926 5.53505 21.8301 7.31562 21.8301 9.17223C21.8301 11.0288 21.0926 12.8094 19.7798 14.1222L18.3648 15.5362H18.3638ZM15.5358 18.3642L14.1208 19.7782C12.8079 21.0911 11.0274 21.8286 9.17077 21.8286C7.31416 21.8286 5.53359 21.0911 4.22077 19.7782C2.90795 18.4654 2.17041 16.6848 2.17041 14.8282C2.17041 12.9716 2.90795 11.1911 4.22077 9.87823L5.63577 8.46423L7.04977 9.88023L5.63577 11.2942C5.16814 11.7578 4.79667 12.3091 4.5427 12.9166C4.28872 13.5241 4.15724 14.1758 4.1558 14.8343C4.15435 15.4927 4.28298 16.145 4.53429 16.7536C4.78561 17.3622 5.15465 17.9152 5.62025 18.3808C6.08585 18.8463 6.63882 19.2154 7.24743 19.4667C7.85603 19.718 8.50828 19.8466 9.16673 19.8452C9.82518 19.8438 10.4769 19.7123 11.0844 19.4583C11.6919 19.2043 12.2432 18.8329 12.7068 18.3652L14.1208 16.9512L15.5358 18.3652V18.3642ZM14.8278 7.75723L16.2428 9.17223L9.17177 16.2422L7.75677 14.8282L14.8278 7.75823V7.75723Z" fill="#007142"/>
</svg>
