<svg width="25" height="25" viewBox="0 0 25 25" fill="none" xmlns="http://www.w3.org/2000/svg">
<path d="M18.75 8.33317H20.8333C21.1096 8.33317 21.3746 8.44292 21.5699 8.63827C21.7653 8.83362 21.875 9.09857 21.875 9.37484V21.8748C21.875 22.1511 21.7653 22.4161 21.5699 22.6114C21.3746 22.8068 21.1096 22.9165 20.8333 22.9165H4.16667C3.8904 22.9165 3.62545 22.8068 3.4301 22.6114C3.23475 22.4161 3.125 22.1511 3.125 21.8748V9.37484C3.125 9.09857 3.23475 8.83362 3.4301 8.63827C3.62545 8.44292 3.8904 8.33317 4.16667 8.33317H6.25V7.2915C6.25 5.6339 6.90848 4.04419 8.08058 2.87209C9.25269 1.69998 10.8424 1.0415 12.5 1.0415C14.1576 1.0415 15.7473 1.69998 16.9194 2.87209C18.0915 4.04419 18.75 5.6339 18.75 7.2915V8.33317ZM16.6667 8.33317V7.2915C16.6667 6.18643 16.2277 5.12663 15.4463 4.34523C14.6649 3.56382 13.6051 3.12484 12.5 3.12484C11.3949 3.12484 10.3351 3.56382 9.55372 4.34523C8.77232 5.12663 8.33333 6.18643 8.33333 7.2915V8.33317H16.6667ZM7.29167 11.4582V13.5415H9.375V11.4582H7.29167ZM7.29167 14.5832V16.6665H9.375V14.5832H7.29167ZM7.29167 17.7082V19.7915H9.375V17.7082H7.29167Z" fill="#B0B6AF"/>
</svg>
