<svg width="40" height="40" viewBox="0 0 40 40" fill="none" xmlns="http://www.w3.org/2000/svg">
<path d="M20.0002 26.6667C23.6821 26.6667 26.6668 23.6819 26.6668 20C26.6668 16.3181 23.6821 13.3334 20.0002 13.3334C16.3183 13.3334 13.3335 16.3181 13.3335 20C13.3335 23.6819 16.3183 26.6667 20.0002 26.6667Z" stroke="#1D472E" stroke-width="2" stroke-linecap="round" stroke-linejoin="round"/>
<path d="M31.8357 13.0436L32.7016 12.5435L32.7016 12.5435L31.8357 13.0436ZM31.9453 13.2334L31.0794 13.7336L31.0794 13.7336L31.9453 13.2334ZM33.2112 14.479L33.6974 13.6051L33.6974 13.6051L33.2112 14.479ZM35.7965 15.9172L35.3103 16.7911H35.3103L35.7965 15.9172ZM36.6529 17.3699L35.6529 17.3722V17.3722L36.6529 17.3699ZM36.6648 22.6229L35.6648 22.6252L36.6648 22.6229ZM35.806 24.0845L35.3213 23.2098H35.3213L35.806 24.0845ZM33.2145 25.5206L33.6992 26.3953L33.2145 25.5206ZM31.9439 26.7689L31.0779 26.2687L31.0779 26.2687L31.9439 26.7689ZM31.8357 26.9561L32.7016 27.4563L32.7016 27.4563L31.8357 26.9561ZM31.3892 28.6795L30.3894 28.6963V28.6963L31.3892 28.6795ZM31.4392 31.6477L30.4393 31.6645L31.4392 31.6477ZM30.6094 33.1172L30.1074 32.2523L30.1074 32.2523L30.6094 33.1172ZM26.0627 35.756L26.5647 36.6209H26.5647L26.0627 35.756ZM24.3682 35.7435L24.883 34.8861L24.3682 35.7435ZM21.8248 34.2165L21.3101 35.0739L21.8248 34.2165ZM18.1772 34.2145L18.6909 35.0725L18.6909 35.0725L18.1772 34.2145ZM15.6454 35.7305L15.1317 34.8725L15.6454 35.7305ZM13.957 35.7446L14.4563 34.8782L13.957 35.7446ZM9.39598 33.1163L9.89526 32.2499L9.39598 33.1163ZM8.56169 31.6441L9.56155 31.661L8.56169 31.6441ZM8.61158 28.6889L7.61172 28.672L8.61158 28.6889ZM8.17166 26.9767L9.03954 26.48L8.17166 26.9767ZM8.05579 26.7743L7.1879 27.2711H7.18791L8.05579 26.7743ZM6.78333 25.5173L6.29719 26.3912L6.78333 25.5173ZM4.2043 24.0825L3.71815 24.9564L3.71815 24.9564L4.2043 24.0825ZM3.34787 22.6299L2.34788 22.6321L3.34787 22.6299ZM3.33594 17.3768L4.33594 17.3745L3.33594 17.3768ZM4.19475 15.9152L4.67946 16.7899H4.67946L4.19475 15.9152ZM6.78622 14.4791L6.30151 13.6045H6.30151L6.78622 14.4791ZM8.05689 13.2309L7.19097 12.7307L7.19097 12.7307L8.05689 13.2309ZM8.16503 13.0436L9.03095 13.5438L9.03095 13.5438L8.16503 13.0436ZM8.61151 11.3203L9.61137 11.3034L8.61151 11.3203ZM8.56157 8.35208L7.56171 8.3689L8.56157 8.35208ZM9.39139 6.88257L9.89336 7.74745H9.89336L9.39139 6.88257ZM13.938 4.24375L14.44 5.10863V5.10863L13.938 4.24375ZM15.6325 4.25629L15.1178 5.11365V5.11365L15.6325 4.25629ZM18.1759 5.78324L17.6612 6.6406L18.1759 5.78324ZM21.8236 5.78522L21.3098 4.92727V4.92727L21.8236 5.78522ZM24.3554 4.26925L23.8417 3.41129V3.41129L24.3554 4.26925ZM26.0437 4.25512L26.543 3.38868L26.543 3.38868L26.0437 4.25512ZM30.6048 6.88346L31.1041 6.01702V6.01702L30.6048 6.88346ZM31.4391 8.35556L30.4393 8.33873V8.33874L31.4391 8.35556ZM31.3892 11.3203L30.3894 11.3034V11.3034L31.3892 11.3203ZM30.9698 13.5438L31.0794 13.7336L32.8112 12.7332L32.7016 12.5435L30.9698 13.5438ZM32.7251 15.3529L35.3103 16.7911L36.2826 15.0433L33.6974 13.6051L32.7251 15.3529ZM35.6529 17.3722L35.6648 22.6252L37.6648 22.6207L37.6529 17.3676L35.6529 17.3722ZM35.3213 23.2098L32.7298 24.6459L33.6992 26.3953L36.2907 24.9592L35.3213 23.2098ZM31.0779 26.2687L30.9698 26.4559L32.7016 27.4563L32.8098 27.2691L31.0779 26.2687ZM30.3894 28.6963L30.4393 31.6645L32.439 31.6308L32.3891 28.6627L30.3894 28.6963ZM30.1074 32.2523L25.5608 34.8911L26.5647 36.6209L31.1113 33.9821L30.1074 32.2523ZM24.883 34.8861L22.3395 33.3591L21.3101 35.0739L23.8535 36.6008L24.883 34.8861ZM20.1091 32.741H19.8896V34.741H20.1091V32.741ZM17.6635 33.3566L15.1317 34.8725L16.1591 36.5884L18.6909 35.0725L17.6635 33.3566ZM14.4563 34.8782L9.89526 32.2499L8.89669 33.9828L13.4577 36.6111L14.4563 34.8782ZM9.56155 31.661L9.61144 28.7058L7.61172 28.672L7.56183 31.6272L9.56155 31.661ZM9.03954 26.48L8.92367 26.2775L7.18791 27.2711L7.30378 27.4735L9.03954 26.48ZM7.26948 24.6434L4.69044 23.2087L3.71815 24.9564L6.29719 26.3912L7.26948 24.6434ZM4.34787 22.6276L4.33594 17.3745L2.33594 17.3791L2.34788 22.6321L4.34787 22.6276ZM4.67946 16.7899L7.27094 15.3538L6.30151 13.6045L3.71003 15.0406L4.67946 16.7899ZM8.9228 13.7311L9.03095 13.5438L7.29912 12.5435L7.19097 12.7307L8.9228 13.7311ZM9.61137 11.3034L9.56143 8.33526L7.56171 8.3689L7.61166 11.3371L9.61137 11.3034ZM9.89336 7.74745L14.44 5.10863L13.4361 3.37886L8.88942 6.01768L9.89336 7.74745ZM15.1178 5.11365L17.6612 6.6406L18.6907 4.92588L16.1472 3.39892L15.1178 5.11365ZM19.8917 7.2587H20.1112V5.2587H19.8917V7.2587ZM22.3373 6.64318L24.8691 5.12721L23.8417 3.41129L21.3098 4.92727L22.3373 6.64318ZM25.5444 5.12155L30.1055 7.74989L31.1041 6.01702L26.543 3.38868L25.5444 5.12155ZM30.4393 8.33874L30.3894 11.3034L32.3891 11.3371L32.439 8.37238L30.4393 8.33874ZM30.1055 7.74989C30.3156 7.87091 30.4433 8.09638 30.4393 8.33873L32.439 8.37238C32.4553 7.40298 31.9442 6.5011 31.1041 6.01702L30.1055 7.74989ZM24.8691 5.12721C25.0765 5.003 25.3349 5.00084 25.5444 5.12155L26.543 3.38868C25.7051 2.90582 24.6714 2.91447 23.8417 3.41129L24.8691 5.12721ZM20.1112 7.2587C20.8952 7.2587 21.6646 7.04597 22.3373 6.64318L21.3098 4.92727C20.9476 5.14415 20.5333 5.2587 20.1112 5.2587V7.2587ZM17.6612 6.6406C18.3349 7.04504 19.1059 7.2587 19.8917 7.2587V5.2587C19.4686 5.2587 19.0534 5.14365 18.6907 4.92588L17.6612 6.6406ZM14.44 5.10863C14.65 4.98676 14.9096 4.98868 15.1178 5.11365L16.1472 3.39892C15.3146 2.89905 14.276 2.89136 13.4361 3.37886L14.44 5.10863ZM9.56143 8.33526C9.55737 8.09365 9.68436 7.86875 9.89336 7.74745L8.88942 6.01768C8.05344 6.50288 7.54545 7.40246 7.56171 8.3689L9.56143 8.33526ZM9.03095 13.5438C9.42396 12.8635 9.62459 12.089 9.61137 11.3034L7.61166 11.3371C7.61877 11.7601 7.51074 12.1771 7.29912 12.5435L9.03095 13.5438ZM7.27094 15.3538C7.95856 14.9727 8.52957 14.4118 8.9228 13.7311L7.19097 12.7307C6.97923 13.0972 6.67177 13.3993 6.30151 13.6045L7.27094 15.3538ZM4.33594 17.3745C4.33539 17.1316 4.467 16.9077 4.67946 16.7899L3.71003 15.0406C2.86017 15.5115 2.33374 16.4075 2.33594 17.3791L4.33594 17.3745ZM4.69044 23.2087C4.47946 23.0913 4.34842 22.869 4.34787 22.6276L2.34788 22.6321C2.35007 23.5979 2.87422 24.4869 3.71815 24.9564L4.69044 23.2087ZM8.92367 26.2775C8.53144 25.5923 7.95945 25.0272 7.26948 24.6434L6.29719 26.3912C6.66871 26.5978 6.97671 26.9021 7.1879 27.2711L8.92367 26.2775ZM9.61144 28.7058C9.6246 27.9259 9.42702 27.1569 9.03954 26.48L7.30378 27.4735C7.51242 27.838 7.61881 28.2521 7.61172 28.672L9.61144 28.7058ZM9.89526 32.2499C9.68524 32.1288 9.55745 31.9034 9.56155 31.661L7.56183 31.6272C7.54546 32.5967 8.0566 33.4986 8.89669 33.9828L9.89526 32.2499ZM15.1317 34.8725C14.9242 34.9967 14.6658 34.9989 14.4563 34.8782L13.4577 36.6111C14.2957 37.0939 15.3294 37.0853 16.1591 36.5884L15.1317 34.8725ZM19.8896 32.741C19.1055 32.741 18.3362 32.9538 17.6635 33.3566L18.6909 35.0725C19.0531 34.8556 19.4674 34.741 19.8896 34.741V32.741ZM22.3395 33.3591C21.6658 32.9547 20.8948 32.741 20.1091 32.741V34.741C20.5322 34.741 20.9473 34.8561 21.3101 35.0739L22.3395 33.3591ZM25.5608 34.8911C25.3508 35.013 25.0911 35.0111 24.883 34.8861L23.8535 36.6008C24.6862 37.1007 25.7247 37.1084 26.5647 36.6209L25.5608 34.8911ZM30.4393 31.6645C30.4434 31.9061 30.3164 32.131 30.1074 32.2523L31.1113 33.9821C31.9473 33.4969 32.4553 32.5973 32.439 31.6308L30.4393 31.6645ZM30.9698 26.4559C30.5768 27.1363 30.3762 27.9107 30.3894 28.6963L32.3891 28.6627C32.382 28.2396 32.49 27.8226 32.7016 27.4563L30.9698 26.4559ZM32.7298 24.6459C32.0422 25.027 31.4712 25.5879 31.0779 26.2687L32.8098 27.2691C33.0215 26.9025 33.329 26.6005 33.6992 26.3953L32.7298 24.6459ZM35.6648 22.6252C35.6654 22.8681 35.5338 23.0921 35.3213 23.2098L36.2907 24.9592C37.1406 24.4882 37.667 23.5923 37.6648 22.6207L35.6648 22.6252ZM35.3103 16.7911C35.5213 16.9085 35.6523 17.1307 35.6529 17.3722L37.6529 17.3676C37.6507 16.4019 37.1265 15.5128 36.2826 15.0433L35.3103 16.7911ZM31.0794 13.7336C31.4714 14.4123 32.0402 14.9719 32.7251 15.3529L33.6974 13.6051C33.3286 13.4 33.0223 13.0986 32.8112 12.7332L31.0794 13.7336ZM32.7016 12.5435C32.49 12.1771 32.382 11.7601 32.3891 11.3371L30.3894 11.3034C30.3762 12.089 30.5768 12.8635 30.9698 13.5438L32.7016 12.5435Z" fill="#1D472E"/>
</svg>
