<?xml version="1.0" encoding="utf-8"?>
<!-- Generator: Adobe Illustrator 27.0.0, SVG Export Plug-In . SVG Version: 6.00 Build 0)  -->
<svg version="1.1" id="Layer_1" xmlns="http://www.w3.org/2000/svg" xmlns:xlink="http://www.w3.org/1999/xlink" x="0px" y="0px"
	 viewBox="0 0 40 40" style="enable-background:new 0 0 40 40;" xml:space="preserve">
<style type="text/css">
	.st0{fill:none;stroke:#007142;stroke-width:2;stroke-linecap:round;stroke-linejoin:round;}
	.st1{fill:#007142;}
	.st2{fill:#FFFFFF;}
</style>
<path class="st0" d="M20,26.7c3.7,0,6.7-3,6.7-6.7s-3-6.7-6.7-6.7s-6.7,3-6.7,6.7S16.3,26.7,20,26.7z"/>
<path class="st1" d="M32.7,12.8l-0.1-0.2c-0.3-0.6-0.5-1.2-0.5-1.8l0.1-3.1c0-0.6-0.3-1.2-0.9-1.6l-4.8-2.8c-0.6-0.3-1.2-0.3-1.8,0
	l-2.7,1.6c-0.5,0.3-1.2,0.5-1.8,0.5h-0.2c-0.6,0-1.3-0.2-1.8-0.5l-2.7-1.6c-0.6-0.3-1.2-0.3-1.8,0L8.8,6.1C8.2,6.4,7.9,7,7.9,7.7
	l0.1,3.1c0,0.6-0.2,1.3-0.5,1.8l-0.1,0.2c-0.3,0.6-0.8,1-1.3,1.3l-2.7,1.5c-0.6,0.3-0.9,0.9-0.9,1.5l0,5.6c0,0.6,0.3,1.2,0.9,1.5
	L6,25.8c0.6,0.3,1,0.8,1.3,1.3l0.1,0.2c0.3,0.6,0.5,1.2,0.5,1.8l-0.1,3.1c0,0.6,0.3,1.2,0.9,1.6l4.8,2.8c0.6,0.3,1.2,0.3,1.8,0
	l2.7-1.6c0.5-0.3,1.2-0.5,1.8-0.5h0.2c0.6,0,1.3,0.2,1.8,0.5l2.7,1.6c0.6,0.3,1.2,0.3,1.8,0l4.8-2.8c0.6-0.3,0.9-0.9,0.9-1.6
	l-0.1-3.1c0-0.6,0.2-1.3,0.5-1.8l0.1-0.2c0.3-0.6,0.8-1,1.3-1.3l2.7-1.5c0.6-0.3,0.9-0.9,0.9-1.5l0-5.6c0-0.6-0.3-1.2-0.9-1.5
	L34,14.2C33.4,13.8,33,13.4,32.7,12.8z"/>
<circle class="st2" cx="20" cy="20" r="6.5"/>
</svg>
