<?xml version="1.0" encoding="utf-8"?>
<!-- Generator: Adobe Illustrator 26.3.1, SVG Export Plug-In . SVG Version: 6.00 Build 0)  -->
<svg version="1.1" id="Layer_1" xmlns="http://www.w3.org/2000/svg" xmlns:xlink="http://www.w3.org/1999/xlink" x="0px" y="0px"
	 viewBox="0 0 35 57" style="enable-background:new 0 0 35 57;" xml:space="preserve">
<style type="text/css">
	.st0{fill:#FFFFFF;}
</style>
<g>
	<path class="st0" d="M17.5,1.9c12.6,0,15.3,14.5,15.3,26.6c0,12.1-2.7,26.6-15.3,26.6C4.9,55.1,2.2,40.6,2.2,28.5
		C2.2,16.3,4.9,1.9,17.5,1.9z M17.5,0C11.1,0,6.2,3.4,3.4,9.9c-2,4.6-3.1,10.9-3.1,18.6c0,7.7,1,14,3.1,18.6
		c2.8,6.5,7.7,9.9,14.1,9.9c6.4,0,11.3-3.4,14.1-9.9c2-4.7,3.1-10.9,3.1-18.6s-1-14-3.1-18.6C28.8,3.4,23.9,0,17.5,0z"/>
	<path class="st0" d="M22.1,26.9c0.8,0.3,1.7,0.2,2.4-0.1c0.3-0.1,1.7-0.8,2.2-2c0.4-1.1-1.2-9-3.3-12.5l1.2-1.5L24,10.2
		c-0.8-1-1.8-1.7-2.9-2.2c-1.1-0.5-2.4-0.7-3.6-0.7c-1.1,0-2.3,0.2-3.4,0.6c-1.1,0.4-2,1.1-2.8,1.9c-1.6,1.8-2.5,4.1-2.5,6.5
		c0,3.3,1.4,8.3,8.2,12.9c6.1,4.2,7.4,8.5,7.4,11.4c0,1.9-0.7,3.8-2,5.2c-0.6,0.6-1.4,1.1-2.2,1.5c-0.8,0.3-1.7,0.5-2.6,0.4
		c-0.8,0-1.7-0.1-2.4-0.4C14.3,47,13.6,46.6,13,46l1.1-1.4l-0.4-0.6c-2.1-2.7-3.5-10.6-3.4-11.3c0.3-0.4,0.6-0.7,1.1-0.9
		c0.2-0.1,0.4-0.1,0.5-0.1c0.2,0,0.4,0,0.6,0.1c0.2,0.1,0.3,0.2,0.4,0.4c-0.1,0.4-0.1,0.9,0,1.3c0.1,0.4,0.3,0.8,0.6,1.2
		c0.6,0.7,1.2,1.4,1.9,2c2,1.9,3.5,3.4,3,4.7l1.5,1.2c1.6-2.6-1.2-5.2-3.2-7.2c-0.6-0.5-1.2-1.1-1.7-1.7c-0.4-0.5-0.3-0.7-0.3-0.9
		c0.3-1.1-0.6-2.3-1.7-2.7c-0.8-0.3-1.7-0.2-2.4,0.1c-0.3,0.1-1.7,0.8-2.2,2c-0.4,1.1,1.2,9,3.3,12.5l-1.2,1.5l0.5,0.6
		c0.8,1,1.8,1.7,2.9,2.2c1.1,0.5,2.4,0.7,3.6,0.7c1.2,0.1,2.3-0.1,3.4-0.6c1.1-0.4,2-1.1,2.8-1.9c1.6-1.8,2.5-4.1,2.5-6.5
		c0-3.3-1.4-8.2-8.2-12.9c-6.1-4.2-7.4-8.5-7.4-11.4c0-1.9,0.7-3.8,2-5.2c0.6-0.6,1.4-1.2,2.2-1.5c0.8-0.3,1.7-0.5,2.6-0.4
		c0.8,0,1.7,0.1,2.4,0.4c0.8,0.3,1.5,0.7,2.1,1.3L21,12.3l0.4,0.6c2.1,2.7,3.5,10.6,3.4,11.3c-0.3,0.4-0.6,0.7-1.1,0.9
		c-0.2,0.1-0.4,0.1-0.5,0.1c-0.2,0-0.4,0-0.6-0.1c-0.2-0.1-0.3-0.2-0.4-0.4c0.1-0.4,0.1-0.9,0-1.3c-0.1-0.4-0.3-0.8-0.6-1.2
		c-0.6-0.7-1.2-1.4-1.9-2c-2-1.9-3.5-3.4-3-4.7l-1.5-1.2c-1.6,2.6,1.2,5.2,3.2,7.2c0.6,0.5,1.2,1.1,1.7,1.7c0.4,0.5,0.3,0.7,0.3,0.9
		C20.1,25.3,21,26.6,22.1,26.9z"/>
</g>
</svg>
