<svg width="56" height="56" viewBox="0 0 56 56" fill="none" xmlns="http://www.w3.org/2000/svg">
<circle cx="28" cy="28" r="28" fill="#1D472E"/>
<path d="M40.4446 42.0013V38.8902C40.4446 37.24 39.789 35.6573 38.6221 34.4904C37.4552 33.3235 35.8726 32.668 34.2223 32.668H21.7779C20.1277 32.668 18.545 33.3235 17.3781 34.4904C16.2112 35.6573 15.5557 37.24 15.5557 38.8902V42.0013" stroke="#2EFFB4" stroke-width="2" stroke-linecap="round" stroke-linejoin="round"/>
<path d="M28.0001 26.4444C31.4365 26.4444 34.2223 23.6587 34.2223 20.2222C34.2223 16.7858 31.4365 14 28.0001 14C24.5636 14 21.7778 16.7858 21.7778 20.2222C21.7778 23.6587 24.5636 26.4444 28.0001 26.4444Z" stroke="#2EFFB4" stroke-width="2" stroke-linecap="round" stroke-linejoin="round"/>
</svg>
