<?xml version="1.0" encoding="utf-8"?>
<!-- Generator: Adobe Illustrator 26.5.0, SVG Export Plug-In . SVG Version: 6.00 Build 0)  -->
<svg version="1.1" id="Layer_1" xmlns="http://www.w3.org/2000/svg" xmlns:xlink="http://www.w3.org/1999/xlink" x="0px" y="0px"
	 viewBox="0 0 24 24" style="enable-background:new 0 0 24 24;" xml:space="preserve">
<style type="text/css">
	.st0{fill:#FFFFFF;}
</style>
<g>
	<path class="st0" d="M12,20c2.1,0,4.2-0.8,5.7-2.3c1.5-1.5,2.3-3.5,2.3-5.7c0-2.1-0.8-4.2-2.3-5.7C16.2,4.8,14.1,4,12,4
		C9.9,4,7.8,4.8,6.3,6.3C4.8,7.8,4,9.9,4,12c0,2.1,0.8,4.2,2.3,5.7C7.8,19.2,9.9,20,12,20z M12,22C6.5,22,2,17.5,2,12S6.5,2,12,2
		s10,4.5,10,10S17.5,22,12,22z M12,14c-0.5,0-1-0.2-1.4-0.6S10,12.5,10,12s0.2-1,0.6-1.4S11.5,10,12,10s1,0.2,1.4,0.6S14,11.5,14,12
		s-0.2,1-0.6,1.4S12.5,14,12,14z"/>
</g>
</svg>
