<svg width="24" height="24" viewBox="0 0 24 24" fill="none" xmlns="http://www.w3.org/2000/svg">
<path d="M12 16C14.2091 16 16 14.2091 16 12C16 9.79086 14.2091 8 12 8C9.79086 8 8 9.79086 8 12C8 14.2091 9.79086 16 12 16Z" stroke="white" stroke-width="2" stroke-linecap="round" stroke-linejoin="round"/>
<path d="M19.1013 7.82521L19.9672 7.32502L19.9672 7.32502L19.1013 7.82521ZM19.1671 7.93906L18.3012 8.43926L18.3012 8.43926L19.1671 7.93906ZM19.9266 8.68644L20.4128 7.81256L20.4128 7.81256L19.9266 8.68644ZM21.4778 9.54935L20.9916 10.4232L20.9916 10.4232L21.4778 9.54935ZM21.9916 10.421L20.9916 10.4232V10.4232L21.9916 10.421ZM21.9988 13.5728L20.9988 13.575V13.575L21.9988 13.5728ZM21.4835 14.4497L20.9988 13.575V13.575L21.4835 14.4497ZM19.9286 15.3114L20.4133 16.1861L19.9286 15.3114ZM19.1662 16.0603L18.3003 15.5602L18.3003 15.5602L19.1662 16.0603ZM19.1013 16.1727L19.9672 16.6729L19.9672 16.6729L19.1013 16.1727ZM18.8334 17.2067L17.8336 17.2235V17.2235L18.8334 17.2067ZM18.8634 18.9876L17.8635 19.0044L18.8634 18.9876ZM18.3655 19.8693L17.8635 19.0044H17.8635L18.3655 19.8693ZM15.6375 21.4526L16.1395 22.3175H16.1395L15.6375 21.4526ZM14.6208 21.4451L15.1356 20.5877L14.6208 21.4451ZM13.0948 20.5289L12.5801 21.3863L13.0948 20.5289ZM10.9062 20.5277L11.4199 21.3857L11.4199 21.3857L10.9062 20.5277ZM9.38713 21.4373L8.87341 20.5794L8.87341 20.5794L9.38713 21.4373ZM8.37412 21.4458L8.87341 20.5794L8.37412 21.4458ZM5.63749 19.8688L6.13677 19.0024L5.63749 19.8688ZM5.13692 18.9855L6.13677 19.0024L5.13692 18.9855ZM5.16685 17.2124L4.16699 17.1955L5.16685 17.2124ZM4.9029 16.1851L5.77078 15.6883L4.9029 16.1851ZM4.83337 16.0636L3.96549 16.5604L3.96549 16.5604L4.83337 16.0636ZM4.0699 15.3094L3.58376 16.1833H3.58376L4.0699 15.3094ZM2.52248 14.4485L2.03633 15.3224L2.03633 15.3224L2.52248 14.4485ZM2.00863 13.5769L1.00863 13.5792L2.00863 13.5769ZM2.00147 10.4251L3.00146 10.4228L2.00147 10.4251ZM2.51675 9.54817L3.00146 10.4228H3.00146L2.51675 9.54817ZM4.07164 8.6865L3.58692 7.81183L3.58692 7.81183L4.07164 8.6865ZM4.83403 7.93754L3.96812 7.43735L3.96812 7.43735L4.83403 7.93754ZM4.89892 7.82521L5.76483 8.32541L5.76484 8.3254L4.89892 7.82521ZM5.16681 6.79118L6.16667 6.77436L5.16681 6.79118ZM5.13685 5.01027L4.13699 5.02709L5.13685 5.01027ZM5.63473 4.12856L6.1367 4.99345L6.1367 4.99345L5.63473 4.12856ZM8.36272 2.54527L8.86469 3.41016L8.86469 3.41016L8.36272 2.54527ZM9.3794 2.5528L8.86469 3.41016V3.41016L9.3794 2.5528ZM10.9055 3.46897L10.3908 4.32633L10.9055 3.46897ZM13.094 3.47016L12.5803 2.6122L12.5803 2.6122L13.094 3.47016ZM14.6131 2.56057L14.0994 1.70262V1.70262L14.6131 2.56057ZM15.6261 2.55209L16.1254 1.68565L16.1254 1.68565L15.6261 2.55209ZM18.3628 4.1291L18.8621 3.26266L18.3628 4.1291ZM18.8634 5.01236L17.8635 4.99553V4.99554L18.8634 5.01236ZM18.8334 6.79118L17.8336 6.77436V6.77436L18.8334 6.79118ZM18.2354 8.3254L18.3012 8.43926L20.033 7.43887L19.9672 7.32502L18.2354 8.3254ZM19.4405 9.56032L20.9916 10.4232L21.9639 8.67547L20.4128 7.81256L19.4405 9.56032ZM20.9916 10.4232L20.9988 13.575L22.9988 13.5705L22.9916 10.4187L20.9916 10.4232ZM20.9988 13.575L19.4439 14.4367L20.4133 16.1861L21.9682 15.3244L20.9988 13.575ZM18.3003 15.5602L18.2354 15.6725L19.9672 16.6729L20.0321 16.5605L18.3003 15.5602ZM17.8336 17.2235L17.8635 19.0044L19.8633 18.9708L19.8333 17.1899L17.8336 17.2235ZM17.8635 19.0044L15.1356 20.5877L16.1395 22.3175L18.8675 20.7342L17.8635 19.0044ZM15.1356 20.5877L13.6095 19.6716L12.5801 21.3863L14.1061 22.3025L15.1356 20.5877ZM12.0654 19.2436H11.9337V21.2436H12.0654V19.2436ZM10.3925 19.6698L8.87341 20.5794L9.90085 22.2953L11.4199 21.3857L10.3925 19.6698ZM8.87341 20.5794L6.13677 19.0024L5.1382 20.7352L7.87484 22.3122L8.87341 20.5794ZM6.13677 19.0024L6.16671 17.2292L4.16699 17.1955L4.13706 18.9686L6.13677 19.0024ZM5.77078 15.6883L5.70125 15.5668L3.96549 16.5604L4.03502 16.6818L5.77078 15.6883ZM4.55605 14.4355L3.00862 13.5747L2.03633 15.3224L3.58376 16.1833L4.55605 14.4355ZM3.00862 13.5747L3.00146 10.4228L1.00147 10.4274L1.00863 13.5792L3.00862 13.5747ZM3.00146 10.4228L4.55635 9.56117L3.58692 7.81183L2.03203 8.6735L3.00146 10.4228ZM5.69995 8.43774L5.76483 8.32541L4.03301 7.32502L3.96812 7.43735L5.69995 8.43774ZM6.16667 6.77436L6.1367 4.99345L4.13699 5.02709L4.16695 6.808L6.16667 6.77436ZM6.1367 4.99345L8.86469 3.41016L7.86075 1.68039L5.13277 3.26368L6.1367 4.99345ZM8.86469 3.41016L10.3908 4.32633L11.4202 2.6116L9.89412 1.69543L8.86469 3.41016ZM11.9349 4.75424H12.0666V2.75424H11.9349V4.75424ZM13.6078 4.32812L15.1268 3.41853L14.0994 1.70262L12.5803 2.6122L13.6078 4.32812ZM15.1268 3.41853L17.8635 4.99554L18.8621 3.26266L16.1254 1.68565L15.1268 3.41853ZM17.8635 4.99554L17.8336 6.77436L19.8333 6.808L19.8632 5.02918L17.8635 4.99554ZM17.8635 4.99553L17.8635 4.99553L19.8632 5.02918C19.8755 4.30213 19.4921 3.62572 18.8621 3.26266L17.8635 4.99553ZM15.1268 3.41853L15.1268 3.41853L16.1254 1.68565C15.497 1.32351 14.7217 1.33 14.0994 1.70262L15.1268 3.41853ZM12.0666 4.75424C12.6094 4.75424 13.1421 4.60697 13.6078 4.32812L12.5803 2.6122C12.4251 2.70515 12.2475 2.75424 12.0666 2.75424V4.75424ZM10.3908 4.32633C10.8572 4.60633 11.3909 4.75424 11.9349 4.75424V2.75424C11.7536 2.75424 11.5757 2.70494 11.4202 2.6116L10.3908 4.32633ZM8.86469 3.41016L8.86469 3.41016L9.89412 1.69543C9.26964 1.32053 8.49071 1.31476 7.86075 1.68039L8.86469 3.41016ZM6.1367 4.99345V4.99345L5.13277 3.26368C4.50578 3.62757 4.12479 4.30226 4.13699 5.02709L6.1367 4.99345ZM5.76484 8.3254C6.03692 7.85438 6.17582 7.31824 6.16667 6.77436L4.16695 6.808C4.17 6.9893 4.1237 7.16801 4.03301 7.32502L5.76484 8.3254ZM4.55635 9.56117C5.0324 9.29736 5.42771 8.90902 5.69995 8.43773L3.96812 7.43735C3.87738 7.59444 3.7456 7.72389 3.58692 7.81183L4.55635 9.56117ZM3.00146 10.4228L3.00146 10.4228L2.03204 8.6735C1.39464 9.02672 0.999815 9.69867 1.00147 10.4274L3.00146 10.4228ZM3.00863 13.5747L3.00862 13.5747L1.00863 13.5792C1.01027 14.3035 1.40339 14.9703 2.03633 15.3224L3.00863 13.5747ZM5.70126 15.5668C5.42971 15.0924 5.03372 14.7012 4.55605 14.4355L3.58376 16.1833C3.74298 16.2718 3.87498 16.4022 3.96549 16.5604L5.70126 15.5668ZM6.16671 17.2292C6.17582 16.6893 6.03904 16.1569 5.77078 15.6883L4.03502 16.6818C4.12443 16.838 4.17003 17.0155 4.16699 17.1955L6.16671 17.2292ZM6.13677 19.0024V19.0024L4.13706 18.9686C4.12478 19.6957 4.50813 20.3722 5.1382 20.7352L6.13677 19.0024ZM8.87341 20.5794L8.87341 20.5794L7.87484 22.3122C8.50328 22.6744 9.27855 22.6679 9.90085 22.2953L8.87341 20.5794ZM11.9337 19.2436C11.3908 19.2436 10.8582 19.3909 10.3925 19.6698L11.4199 21.3857C11.5752 21.2927 11.7527 21.2436 11.9337 21.2436V19.2436ZM13.6095 19.6716C13.1431 19.3916 12.6093 19.2436 12.0654 19.2436V21.2436C12.2467 21.2436 12.4246 21.2929 12.5801 21.3863L13.6095 19.6716ZM15.1356 20.5877H15.1356L14.1061 22.3025C14.7306 22.6774 15.5095 22.6831 16.1395 22.3175L15.1356 20.5877ZM17.8635 19.0044L17.8635 19.0044L18.8675 20.7342C19.4945 20.3703 19.8755 19.6956 19.8633 18.9708L17.8635 19.0044ZM18.2354 15.6725C17.9633 16.1435 17.8244 16.6796 17.8336 17.2235L19.8333 17.1899C19.8302 17.0086 19.8765 16.8299 19.9672 16.6729L18.2354 15.6725ZM19.4439 14.4367C18.9679 14.7005 18.5725 15.0889 18.3003 15.5602L20.0321 16.5605C20.1229 16.4034 20.2546 16.274 20.4133 16.1861L19.4439 14.4367ZM20.9988 13.575V13.575L21.9682 15.3244C22.6056 14.9712 23.0004 14.2992 22.9988 13.5705L20.9988 13.575ZM20.9916 10.4232L20.9916 10.4232L22.9916 10.4187C22.99 9.69439 22.5969 9.02758 21.9639 8.67547L20.9916 10.4232ZM18.3012 8.43926C18.5726 8.9091 18.9663 9.29654 19.4405 9.56032L20.4128 7.81256C20.2547 7.72463 20.1235 7.59549 20.033 7.43887L18.3012 8.43926ZM19.9672 7.32502C19.8765 7.16801 19.8302 6.9893 19.8333 6.808L17.8336 6.77436C17.8244 7.31824 17.9633 7.85438 18.2354 8.3254L19.9672 7.32502Z" fill="white"/>
</svg>
