<svg width="24" height="24" viewBox="0 0 24 24" fill="none" xmlns="http://www.w3.org/2000/svg">
<path d="M17.2929 19.2929C16.9024 19.6834 16.9024 20.3166 17.2929 20.7071C17.6834 21.0976 18.3166 21.0976 18.7071 20.7071L17.2929 19.2929ZM21 17L21.7071 17.7071C21.8946 17.5196 22 17.2652 22 17C22 16.7348 21.8946 16.4804 21.7071 16.2929L21 17ZM18.7071 13.2929C18.3166 12.9024 17.6834 12.9024 17.2929 13.2929C16.9024 13.6834 16.9024 14.3166 17.2929 14.7071L18.7071 13.2929ZM18.7071 20.7071L21.7071 17.7071L20.2929 16.2929L17.2929 19.2929L18.7071 20.7071ZM21.7071 16.2929L18.7071 13.2929L17.2929 14.7071L20.2929 17.7071L21.7071 16.2929Z" fill="white"/>
<path d="M18.7071 3.29289C18.3166 2.90237 17.6834 2.90237 17.2929 3.29289C16.9024 3.68342 16.9024 4.31658 17.2929 4.70711L18.7071 3.29289ZM21 7L21.7071 7.70711C21.8946 7.51957 22 7.26522 22 7C22 6.73478 21.8946 6.48043 21.7071 6.29289L21 7ZM17.2929 9.29289C16.9024 9.68342 16.9024 10.3166 17.2929 10.7071C17.6834 11.0976 18.3166 11.0976 18.7071 10.7071L17.2929 9.29289ZM17.2929 4.70711L20.2929 7.70711L21.7071 6.29289L18.7071 3.29289L17.2929 4.70711ZM20.2929 6.29289L17.2929 9.29289L18.7071 10.7071L21.7071 7.70711L20.2929 6.29289Z" fill="white"/>
<path d="M21 8C21.5523 8 22 7.55228 22 7C22 6.44772 21.5523 6 21 6V8ZM3 16C2.44772 16 2 16.4477 2 17C2 17.5523 2.44772 18 3 18V16ZM10.6006 16.7999C11.0422 16.4682 11.1313 15.8414 10.7996 15.3998C10.4679 14.9582 9.84101 14.8691 9.39942 15.2008L10.6006 16.7999ZM13.3994 7.20007C12.9578 7.53176 12.8687 8.15862 13.2004 8.60021C13.5321 9.0418 14.159 9.13089 14.6006 8.7992L13.3994 7.20007ZM21 6H17V8H21V6ZM7 16H3V18H7V16ZM9.39942 15.2008C8.73099 15.7029 7.90163 16 7 16V18C8.34958 18 9.59769 17.5532 10.6006 16.7999L9.39942 15.2008ZM17 6C15.6504 6 14.4023 6.44677 13.3994 7.20007L14.6006 8.7992C15.269 8.29712 16.0984 8 17 8V6Z" fill="white"/>
<path d="M3 6C2.44772 6 2 6.44772 2 7C2 7.55228 2.44772 8 3 8V6ZM21 18C21.5523 18 22 17.5523 22 17C22 16.4477 21.5523 16 21 16V18ZM3 8H7V6H3V8ZM17 18H21V16H17V18ZM11 12C11 15.3137 13.6863 18 17 18V16C14.7909 16 13 14.2091 13 12H11ZM7 8C9.20914 8 11 9.79086 11 12H13C13 8.68629 10.3137 6 7 6V8Z" fill="white"/>
</svg>
